PathFileType	4	(X/Y/Z)	D:\TRACE\v60_Jaco2_6-2-23\v60_baseline_3-v60.trc
DataRate	CameraRate	NumFrames	NumMarkers	Units	OrigDataRate	OrigDataStartFrame	OrigNumFrames
100.00	100.00	      27	9	mm	100.00	3251	      6500
Frame#	Time	front left toe			Front right toe			aft left toe			aft right toe			Arm			FL body			FR body			AL Body			AR Body			
		X1	Y1	Z1	X2	Y2	Z2	X3	Y3	Z3	X4	Y4	Z4	X5	Y5	Z5	X6	Y6	Z6	X7	Y7	Z7	X8	Y8	Z8	X9	Y9	Z9	

3251	32.500	-209.24918	17.89977	-258.44476	178.30685	151.10683	-266.14319	-192.32727	144.71616	360.29086	177.75462	16.93951	361.75937	-120.29957	1211.04443	-391.64145	-95.41098	579.07599	-395.92657	65.01077	579.29535	-398.03500	-83.51733	561.32977	549.97260	73.17529	555.59540	548.54132	
3252	32.510	-209.20911	18.03383	-258.35535	178.95604	152.44012	-267.46335	-193.20695	147.03090	359.22684	177.75336	16.89214	361.74847	-121.04063	1210.09900	-391.96085	-95.65988	579.12732	-396.05832	64.75420	579.27783	-398.33984	-82.95941	561.55450	549.64771	73.77292	555.74530	548.14099	
3253	32.520	-209.21104	18.23095	-258.35681	179.13881	150.69221	-268.19174	-193.49025	146.00504	358.96533	177.83310	16.86316	361.70377	-120.99444	1209.95715	-392.34155	-96.08043	579.30908	-396.32565	64.65006	579.30792	-398.68790	-82.47819	561.92090	549.38348	74.07864	555.90778	547.87073	
3254	32.530	-209.24130	18.26308	-258.45404	178.89606	147.35556	-268.90604	-193.44493	143.73541	359.18719	177.81685	16.80578	361.67838	-120.51672	1210.57043	-390.60126	-95.03040	578.99274	-396.05252	64.58823	579.25635	-398.85248	-81.99515	562.21558	549.45551	74.54197	556.21588	547.48645	
3255	32.540	-209.28476	18.13937	-258.37015	178.54744	143.10133	-269.58902	-192.34909	139.25496	359.52081	177.85173	16.84477	361.66833	-122.05863	1210.36194	-392.62256	-94.87205	578.71057	-396.24734	64.70661	579.00317	-399.20377	-81.67712	562.52246	549.26868	75.00771	556.50354	547.33136	
3256	32.550	-209.25970	17.99319	-258.36267	178.12967	137.68999	-270.02438	-192.70503	135.45154	359.48599	177.80786	16.85208	361.65265	-122.07894	1210.28979	-392.80264	-94.98141	578.63550	-396.49817	64.76090	578.79169	-399.38788	-81.36549	562.66101	549.12732	75.71437	556.80731	547.08954	
3257	32.560	-209.23923	18.05255	-258.35550	178.13257	131.99442	-270.76563	-193.52614	130.50072	359.14127	177.82552	16.78128	361.57599	-121.63177	1210.23694	-392.98615	-95.33197	578.63812	-396.81110	64.57573	578.71283	-399.66089	-80.77021	562.75214	548.98737	76.08881	556.77203	546.82233	
3258	32.570	-209.29250	18.13186	-258.34299	178.22197	126.11849	-271.84207	-193.89026	125.02244	358.76678	177.89044	16.69504	361.58484	-120.86718	1210.28235	-393.41428	-95.52500	578.66772	-396.84067	64.44018	578.69910	-399.88000	-80.41431	562.70709	548.78210	76.26794	556.72302	546.60876	
3259	32.580	-209.34004	18.08009	-258.28134	178.88486	119.64463	-273.13635	-194.38078	118.44622	357.75980	177.92542	16.62623	361.57150	-119.74181	1210.83752	-393.87457	-95.79223	578.84015	-396.91211	64.18106	578.70892	-400.19678	-80.10509	562.38409	548.67072	76.61280	556.59845	546.43811	
3260	32.590	-209.33902	17.95404	-258.23419	179.10379	112.80595	-274.67935	-194.76064	111.65770	356.47809	177.97615	16.55812	361.49030	-119.19536	1211.12549	-393.87402	-95.97755	578.87720	-397.00339	64.11243	578.64856	-400.39145	-79.90884	562.34753	548.52429	76.71715	556.49243	546.26068	
3261	32.600	-209.37158	17.89920	-258.23911	178.73257	105.23949	-276.02075	-194.38799	104.07948	355.26523	177.93269	16.49127	361.47025	-119.07079	1210.99414	-393.93799	-96.43189	578.82117	-397.47784	64.44378	578.60431	-400.62589	-79.54894	562.35449	548.43500	77.11927	556.36871	546.05377	
3262	32.610	-209.35410	17.81507	-258.23511	178.41257	97.21424	-277.32306	-194.53253	96.43512	353.46228	178.00630	16.39422	361.46194	-119.31015	1210.64282	-394.23566	-96.22066	578.72040	-397.64371	64.11705	578.41620	-400.76083	-79.14027	562.37903	548.33118	77.62124	556.26697	545.86646	
3263	32.620	-209.35481	17.90974	-258.27097	177.89871	88.50889	-278.40628	-195.18355	88.53617	352.24142	178.01114	16.36953	361.45206	-119.27649	1210.85681	-394.09677	-96.30656	578.82800	-397.77551	63.99371	578.39880	-400.99252	-78.98388	562.47839	547.95416	77.79684	555.97998	545.68781	
3264	32.630	-209.38631	17.94311	-258.27786	177.82344	80.29536	-278.98849	-195.52365	80.80173	351.23581	177.99213	16.31816	361.38211	-118.69672	1211.19604	-393.79773	-96.45240	578.96942	-398.01761	63.98418	578.37408	-401.15744	-78.65020	562.34052	547.83093	78.05558	555.82825	545.52655	
3265	32.640	-209.39980	17.94958	-258.23596	178.33963	72.45269	-279.00946	-195.94879	73.08944	350.76892	178.07666	16.25473	361.35892	-118.41512	1211.32837	-393.84644	-96.57236	579.07562	-398.22845	63.85913	578.45703	-401.31467	-78.45261	562.24353	547.67859	78.00413	555.66241	545.21893	
3266	32.650	-209.36159	17.83801	-258.21896	178.28333	63.96918	-279.09183	-196.00209	64.45958	351.14554	177.92114	16.20016	361.28702	-118.62482	1211.10364	-394.43469	-96.65554	578.99915	-398.45544	63.68350	578.53876	-401.84683	-78.37985	562.21326	547.55200	77.91939	555.47699	544.86523	
3267	32.660	-209.36513	17.72463	-258.27365	178.88200	56.32729	-278.79593	-195.74106	56.01792	351.68750	177.97188	16.18863	361.24445	-118.54387	1210.95398	-394.69885	-96.97003	578.96954	-398.64987	63.68575	578.53516	-402.12448	-78.30602	562.15051	547.38696	78.03499	555.42786	544.69666	
3268	32.670	-209.34270	17.76121	-258.32739	178.91632	48.76973	-278.25247	-196.12178	48.69190	352.29276	177.94418	16.17814	361.25299	-118.64207	1210.87854	-394.92438	-96.34706	578.76349	-398.42508	63.79318	578.52930	-402.31949	-78.23206	562.05804	547.16949	78.35468	555.45618	544.65558	
3269	32.680	-209.43004	17.87230	-258.31689	179.05345	41.72818	-276.98965	-194.72932	41.15677	353.35138	177.96365	16.17246	361.20328	-118.84383	1210.89355	-395.00339	-96.36514	578.91620	-398.70502	63.74060	578.57007	-402.44119	-78.23768	561.99786	546.98798	78.60207	555.50281	544.42554	
3270	32.690	-209.31691	17.86278	-258.24689	178.93669	35.16484	-276.02747	-194.89433	34.74561	353.87183	178.06703	16.21790	361.24771	-119.09736	1210.90881	-395.18539	-96.32104	578.89954	-398.79272	63.86351	578.40308	-402.36829	-77.86486	561.87000	546.78540	78.70595	555.49731	544.12494	
3271	32.700	-209.29916	17.87059	-258.20926	179.46045	28.44676	-275.08597	-194.44913	27.84256	354.39621	178.07840	16.23288	361.26477	-119.32697	1210.72937	-395.45786	-95.96915	578.70514	-398.85831	63.85717	578.41284	-402.53235	-77.65761	561.89929	546.61359	78.83753	555.60229	543.75446	
3272	32.710	-209.23421	17.79349	-258.19086	179.25337	21.85377	-274.57849	-195.65564	21.64684	354.34106	177.99942	16.15154	361.22708	-119.00681	1210.75610	-395.18213	-96.04517	578.60815	-399.10834	63.92257	578.30896	-402.79956	-77.65674	561.92938	546.26343	79.03055	555.55096	543.62616	
3273	32.720	-209.08052	17.74384	-258.25253	179.40063	20.67047	-277.19769	-196.13496	18.03403	352.73944	178.11832	16.21177	361.28918	-119.65938	1210.55115	-395.94348	-96.12514	578.46283	-399.39841	63.79982	578.25085	-403.03711	-77.75112	562.06622	545.95648	79.19502	555.47510	543.38556	
3274	32.730	-209.04395	17.84699	-258.28809	179.70497	17.40809	-277.32910	-196.91144	15.86535	352.87711	177.92619	16.16460	361.24155	-119.20278	1210.72595	-395.56732	-96.71995	579.12555	-399.81372	62.80426	578.73914	-402.89621	-77.50082	562.30109	545.99097	79.31408	555.90533	543.13507	
3275	32.740	-208.81677	18.06842	-258.08142	180.24025	17.92606	-276.93771	-197.16397	16.41899	353.11465	177.95706	16.37586	361.34390	-120.01292	1211.22290	-396.09073	-96.99853	579.86578	-399.93466	63.18362	579.45160	-403.37970	-77.22958	563.39917	545.77057	79.19431	556.90826	543.03821	
3276	32.750	-208.89560	20.20621	-258.75687	179.87173	17.97490	-276.42200	-196.83466	16.11019	353.57925	177.82906	18.43162	360.84369	-120.40903	1212.32910	-396.46387	-97.80348	580.87573	-400.19128	63.07580	580.40808	-403.75879	-76.76770	564.51837	545.52399	79.82614	557.80664	542.74176	
3277	32.760	-206.07805	24.16783	-256.79419	179.17899	18.06545	-276.75909	-197.03577	15.86256	353.18814	175.59784	21.47062	363.36319	-120.70094	1213.89758	-396.35446	-96.97330	581.68445	-400.30600	62.65867	581.78448	-404.23550	-76.99473	564.58264	545.27502	79.92120	558.06793	542.17828	
